<?xml version="1.0" encoding="utf-8"?>
<!-- Generator: Adobe Illustrator 27.9.0, SVG Export Plug-In . SVG Version: 6.00 Build 0)  -->
<svg version="1.1" id="Capa_1" xmlns="http://www.w3.org/2000/svg" xmlns:xlink="http://www.w3.org/1999/xlink" x="0px" y="0px"
	 viewBox="0 0 750.8 289.1" style="enable-background:new 0 0 750.8 289.1;" xml:space="preserve">
<style type="text/css">
	.st0{fill:#228335;}
	.st1{fill:#FA892D;}
</style>
<g>
	<g>
		<path class="st0" d="M100.3,136.2H76.8L61,91.4h-8.5v44.8H29.3V10.7h30.9c23.4,0,38.2,11.4,38.2,39.9c0,12.4-3.6,26.6-16.1,33.9
			L100.3,136.2z M60.1,72.4c10.2,0,14.9-4.9,14.9-21.4c0-15.8-4.7-20-15.3-20h-7.3v41.4H60.1z"/>
		<path class="st0" d="M113.1,10.7h23.7v125.5h-23.7V10.7z"/>
		<path class="st0" d="M153.6,10.7h27.1c29.2,0,47.8,11.7,47.8,62.4c0,51.2-19.2,63.1-47.8,63.1h-27.1V10.7z M183.8,116.2
			c16.1,0,20.7-10.9,20.7-43.1c0-31.7-4.6-42.1-20.9-42.1h-6.3v85.1H183.8z"/>
		<path class="st0" d="M240.6,10.7H299V31h-34.6v29.7h24.8v19.2h-24.8v36.5h36.1v19.8h-59.9V10.7z"/>
		<path class="st1" d="M24.4,275.7c0-60.6,44.6-56.1,44.6-90.9c0-9.2-3.1-13.6-9.7-13.6c-5.8,0-10.3,3.4-12.9,19.8L25,188.2
			c3.4-22.6,14.1-36.8,36-36.8c20.4,0,30.7,12.4,30.7,32.4c0,40.5-41.7,49.9-41.7,74.8h41.6v19.8H24.4V275.7z"/>
		<path class="st0" d="M112.4,152.9h58.2v20.4h-34.4V205h25.1v19h-25.1v54.4h-23.7V152.9z"/>
		<path class="st0" d="M188.9,152.9h23.7v125.5h-23.7V152.9z"/>
		<path class="st0" d="M253.2,173.3h-22.4v-20.4h68.9v20.4h-22.6v105.2h-23.9V173.3z"/>
	</g>
	<g>
		<path d="M342.1,134.6h-12.3v-5H360v5h-12.3v45.4h-5.6V134.6z"/>
		<path d="M367.8,129.6h5V143v6.3c2.2-4.8,7.8-7.1,12.9-7c5.7,0,9.5,1.8,12,5c2.5,3.2,3.4,7.6,3.4,12.8v19.7h-4.9v-19.5
			c0-3.9-0.8-7.3-2.6-9.7c-2-2.4-4.8-3.7-9.1-3.7c-4,0-6.9,1.4-8.8,3.6c-2,2.2-2.9,5.2-2.9,8.5v20.8h-5V129.6z"/>
		<path d="M415.9,163c0.3,9.2,8,13.6,14.1,13.5c5.6,0,10.1-2.8,12.5-7.5h5.2c-1.7,3.9-4.2,6.9-7.3,8.9c-3,2-6.6,3-10.3,3
			c-12.6,0-19.1-10.1-19.1-19.2c0-10.7,8.2-19.4,19.1-19.4c5.1,0,9.8,1.8,13.3,5.2c4.2,4.1,6.2,9.7,5.7,15.6H415.9z M444,159
			c-0.3-6.4-6.5-12.6-13.9-12.4c-7.8,0-13.6,5.8-14.1,12.4H444z"/>
		<path d="M516.5,167.5c-2.4,7.8-9.4,13.4-18.1,13.4c-12.3,0-19.5-9.5-19.5-19.3c0-10.8,8.1-19.3,19.1-19.3c8.1,0,16,4.9,18.4,13.7
			h-5.1c-2.3-6.2-8-9-13.1-9c-4.2,0-7.2,1.3-10.2,4.1c-2.4,2.4-4.1,6.3-4.1,10.5c0,8.6,6.5,14.6,14.3,14.6
			c6.9-0.1,11.6-4.3,13.1-8.7H516.5z"/>
		<path d="M536.3,179.2l-14-35.9h5.3l11.4,29.6l11.7-29.6h5.5l-20.7,50.5h-5.4L536.3,179.2z"/>
		<path d="M599.4,167.5c-2.4,7.8-9.4,13.4-18.1,13.4c-12.3,0-19.5-9.5-19.5-19.3c0-10.8,8.1-19.3,19.1-19.3c8.1,0,16,4.9,18.4,13.7
			h-5.1c-2.3-6.2-8-9-13.1-9c-4.2,0-7.2,1.3-10.2,4.1c-2.4,2.4-4.1,6.3-4.1,10.5c0,8.6,6.5,14.6,14.3,14.6
			c6.9-0.1,11.6-4.3,13.1-8.7H599.4z"/>
		<path d="M609.1,129.6h5v50.3h-5V129.6z"/>
		<path d="M626.7,129.6h5v7h-5V129.6z M626.7,143.3h5v36.6h-5V143.3z"/>
		<path d="M644.3,143.3h4.7c0,2,0,4.1-0.1,6.5c2.1-4.8,7-7.7,13.5-7.5c11.2,0.1,15.2,7.9,15.2,16.8v20.8h-4.9v-19.8
			c0-7.9-3.5-13.3-11.6-13.1c-7.5,0.1-11.8,4.6-11.8,12.2v20.7h-5V143.3z"/>
		<path d="M726.4,175.7c0,6.9-2.2,11.4-5.4,14.4c-3.6,3.5-8.8,5.6-13.7,5.6c-9,0-15.6-5.2-17.9-11.8h5.7c0.9,1.6,2.2,3.3,4.3,4.8
			c2.6,1.9,5.7,2.7,8,2.7c6.9,0,14-5.4,14-14.6v-4.7c-2.6,5.2-7.6,8.8-14.6,8.8c-11.3,0-18.9-8.7-18.9-19.2
			c0-10.9,7.9-19.4,18.9-19.4c7.1,0,12.7,4.1,14.7,8.6v-7.5h4.9V175.7z M692.9,161.6c0,7.4,5.2,14.6,14.5,14.6
			c4.1,0,7.6-1.6,10.2-4.2c2.5-2.7,4-6.3,4-10.3c0-3.1-1-6.7-3.3-9.6c-2.2-2.9-5.9-5.1-11-5.1C699.4,147,692.9,153,692.9,161.6
			L692.9,161.6z"/>
		<path d="M369.5,249.1c-2.4,7.8-9.4,13.4-18.1,13.4c-12.3,0-19.5-9.5-19.5-19.3c0-10.8,8.1-19.3,19.1-19.3c8.1,0,16,4.9,18.4,13.7
			h-5.1c-2.3-6.2-8-9-13.1-9c-4.2,0-7.2,1.3-10.2,4.1c-2.4,2.4-4.1,6.3-4.1,10.5c0,8.6,6.5,14.6,14.3,14.6
			c6.9-0.1,11.6-4.3,13.1-8.7H369.5z"/>
		<path d="M377.4,243.2c0-10.2,7.5-19.2,19.2-19.2c11.7,0,19.3,9,19.3,19.3c0,10.3-7.5,19.2-19.3,19.2
			C384.9,262.5,377.4,253.5,377.4,243.2L377.4,243.2z M382.3,243.3c0,8.3,6.3,14.6,14.3,14.6c8.1,0,14.3-6.3,14.3-14.6
			s-6.2-14.6-14.3-14.6C388.6,228.6,382.3,234.9,382.3,243.3L382.3,243.3z"/>
		<path d="M426.3,224.9h4.7v5.8c2.3-4.6,7.3-6.8,11.4-6.8c3.8,0,7.3,1.2,9.9,4.1c0.9,1,2.2,3.4,2.4,3.8c0.5-1,1.3-2.4,2.6-3.9
			c2.4-2.5,5.9-4.1,10-4.1c3.7,0,7.3,1.1,9.8,3.7c3.2,3.2,4.1,7.1,4.1,13.6v20.3h-5v-20.1c0-3.9-0.6-7.3-2.7-9.7
			c-1.5-1.9-3.8-3.1-7.2-3.1c-3.2,0-6.3,1.3-7.9,3.8c-1.8,2.6-2.2,4.6-2.2,8.8v20.3h-5v-20.3c0.1-4.1-0.5-6.5-1.9-8.7
			c-1.7-2.4-4.2-3.8-7.9-3.9c-3.4-0.1-6.2,1.6-7.7,3.7c-1.5,2.1-2.4,4.9-2.4,8.8v20.4h-5V224.9z"/>
		<path d="M493.6,224.9h4.7v5.8c2.3-4.6,7.3-6.8,11.4-6.8c3.8,0,7.3,1.2,9.9,4.1c0.9,1,2.2,3.4,2.4,3.8c0.5-1,1.3-2.4,2.6-3.9
			c2.4-2.5,5.9-4.1,10-4.1c3.7,0,7.3,1.1,9.8,3.7c3.2,3.2,4.1,7.1,4.1,13.6v20.3h-5v-20.1c0-3.9-0.6-7.3-2.7-9.7
			c-1.5-1.9-3.8-3.1-7.2-3.1c-3.2,0-6.3,1.3-7.9,3.8c-1.8,2.6-2.2,4.6-2.2,8.8v20.3h-5v-20.3c0.1-4.1-0.5-6.5-1.9-8.7
			c-1.7-2.4-4.2-3.8-7.9-3.9c-3.4-0.1-6.2,1.6-7.7,3.7c-1.5,2.1-2.4,4.9-2.4,8.8v20.4h-5V224.9z"/>
		<path d="M593.1,261.5h-4.7V255c-2,4.8-6.9,7.6-13.4,7.5c-11.3-0.2-15.3-8-15.3-16.9v-20.7h4.9v19.8c0,7.9,3.5,13.2,11.6,13.1
			c7.5-0.1,11.8-4.6,11.8-12.2v-20.7h5V261.5z"/>
		<path d="M605.7,224.9h4.7c0,2,0,4.1-0.1,6.5c2.1-4.8,7-7.7,13.5-7.5c11.2,0.1,15.2,7.9,15.2,16.8v20.8h-4.9v-19.8
			c0-7.9-3.5-13.3-11.6-13.1c-7.5,0.1-11.8,4.6-11.8,12.2v20.7h-5V224.9z"/>
		<path d="M651.7,211.2h5v7h-5V211.2z M651.7,224.9h5v36.6h-5V224.9z"/>
		<path d="M672.1,228.9H665v-4h7.1v-13.7h4.9v13.7h7.9v4H677v32.6h-4.9V228.9z"/>
		<path d="M703.1,260.8l-14-35.9h5.3l11.4,29.6l11.7-29.6h5.5l-20.7,50.5h-5.4L703.1,260.8z"/>
	</g>
</g>
</svg>
