<?xml version="1.0" encoding="utf-8"?>
<!-- Generator: Adobe Illustrator 27.9.0, SVG Export Plug-In . SVG Version: 6.00 Build 0)  -->
<svg version="1.1" id="Capa_1" xmlns="http://www.w3.org/2000/svg" xmlns:xlink="http://www.w3.org/1999/xlink" x="0px" y="0px"
	 viewBox="0 0 857.3 289" style="enable-background:new 0 0 857.3 289;" xml:space="preserve">
<style type="text/css">
	.st0{clip-path:url(#SVGID_00000053513460091873609920000014989088301290519468_);}
	.st1{fill:#0A9B39;}
	.st2{clip-path:url(#SVGID_00000026883704611039927430000014381752060444038330_);}
	.st3{clip-path:url(#SVGID_00000087402515867484553620000013999379487268751493_);}
	.st4{clip-path:url(#SVGID_00000077293479048042885830000009429983765975072145_);}
	.st5{fill-rule:evenodd;clip-rule:evenodd;fill:#F18732;}
</style>
<g id="Grupo_117" transform="translate(-885.13 -2287.055)">
	<g id="Grupo_96" transform="translate(951.13 2518.991)">
		<g>
			<defs>
				<rect id="SVGID_1_" x="15.1" y="4.3" width="54.7" height="48.4"/>
			</defs>
			<clipPath id="SVGID_00000110464668027932609210000013634272451929157261_">
				<use xlink:href="#SVGID_1_"  style="overflow:visible;"/>
			</clipPath>
			<g id="Grupo_95" style="clip-path:url(#SVGID_00000110464668027932609210000013634272451929157261_);">
				<path id="Trazado_97" class="st1" d="M58.7,30.4c-1,0-2,0.1-3,0.4l-1.1-2.6v-2.8h9.1c0.6,0,1-0.5,1-1s-0.5-1-1-1h-1v-0.6
					c0-1.9-1.5-3.4-3.4-3.4l0,0h-5l-0.7-1.4c0.1,0,0.2,0,0.3,0c0.9,0,1.8-0.5,2.2-1.3l0.2-0.4h1.4c0.6,0,1-0.5,1-1v-3h1
					c0.6,0,1-0.5,1-1c0-2.9-1.8-5.4-4.5-6.3c-1.6-0.5-3.3-0.7-5-0.5c-4.6,0.6-5.5,0.7-5.7,0.7c-0.5,0-1,0.3-1.1,0.8
					c-0.2,0.8-0.3,1.1,5.2,3.9v0.7l-0.3-0.1c-4.4-1.5-9.2-1.4-13.6,0l-3.8,1.5c-0.1,0-0.3,0.1-0.4,0.2l-0.1,0v0
					c-0.1,0-0.2,0.1-0.2,0.1h-3.8v2h2c-0.6,1.1-0.7,2.4-0.5,3.6c0,0.2,0.1,0.4,0.2,0.7h-4.8v2h6c0.7,0.7,1.6,1.3,2.6,1.5l0.9,0.3
					c0,0.1,0,0.2,0,0.4l0.5,1.7h-6.9v2h7.5l0.5,1.8l-3.1,4c-5.2-3.3-12.1-1.8-15.4,3.4C14,40.1,14.8,46,18.7,49.7h-3.5v2h6.5
					c2.9,1.4,6.3,1.4,9.2,0h4.5v-2h-1.5c2-1.9,3.2-4.4,3.5-7.1h2.3c0.6,1.6,2.3,2.4,3.9,1.8c1.6-0.6,2.4-2.3,1.8-3.9
					c-0.1-0.2-0.1-0.3-0.2-0.5l-0.1,0c0.1-0.5,0.1-1.1,0-1.6l8.2-8.2l0.6,1.4c-5.5,2.7-7.8,9.3-5.2,14.8c0.6,1.2,1.4,2.3,2.4,3.3
					h-5.5v2h8.6c5.6,2.6,12.2,0.1,14.8-5.5S69,34,63.4,31.5C61.9,30.8,60.3,30.4,58.7,30.4 M52.6,27.4l-5.4,0l0.7-1.5
					c0.1-0.2,0.2-0.3,0.2-0.5h4.5L52.6,27.4z M33.3,40.6c-0.2-1.5-0.9-2.8-1.9-3.9l1.3-1.6c1.5,1.5,2.5,3.4,2.7,5.5H33.3z
					 M29.1,40.6c-0.1-0.2-0.2-0.4-0.3-0.6l1.3-1.7c0.6,0.7,0.9,1.4,1.1,2.3H29.1z M27.3,41.6c0,0.6-0.5,1-1,1c-0.6,0-1-0.5-1-1
					s0.5-1,1-1C26.8,40.6,27.3,41,27.3,41.6L27.3,41.6 M50.6,23.4h-3c-0.6,0-1-0.4-1-1c0,0,0,0,0,0v-1h4.1L50.6,23.4z M48.6,19.3h-2
					v-3c0-0.6,0.5-1,1-1c0.6,0,1,0.5,1,1L48.6,19.3z M44.5,18.4l-1.5-1c-0.1-0.1-0.2-0.1-0.3-0.1l-0.1,0h1.8L44.5,18.4z M41,24.3
					l0.3,0.3L40,27.4h-0.4l0.5-3.4L41,24.3z M39.1,34.1l0.9-1.9l2,1.1l-1,1.9L39.1,34.1z M37.7,37.1l0.5-1.1l2.6,1.5c0,0,0,0,0,0
					l0.2,0.1l1.1,0.6l0.5,0.3c0.4,0.2,0.5,0.7,0.4,1.1l-0.1,0.4L37.7,37.1z M37.6,27.4h-0.3l-1-3.3l-0.4-1.2l2.2,0.6L37.6,27.4z
					 M39,29.4L38.3,31l-0.5-1.6L39,29.4z M37.1,39.1l1.9,1.1c0,0,0,0.1,0,0.1l0.1,0.3h-1.7C37.3,40.1,37.3,39.6,37.1,39.1L37.1,39.1
					z M42.9,31.5l-2-1.1l2.6-5.6c0.2-0.4,0.1-0.8-0.2-1.1L42.6,23l0.6-3l1.3,0.9v1.5c0,1.1,0.6,2.1,1.6,2.7L42.9,31.5z M53.6,23.4
					h-1v-2h4.1v2L53.6,23.4z M60.7,22.7v0.6h-2v-2h0.6C60.1,21.3,60.7,22,60.7,22.7C60.7,22.7,60.7,22.7,60.7,22.7 M51.6,19.3h-1v-2
					H51l1,2L51.6,19.3z M53.8,15.9l-1.2-0.4v-2c0.6,0.6,1.2,1.2,1.8,1.9l-0.2,0.3C54.2,15.9,54,16,53.8,15.9 M56.7,14.2h-0.6
					c-0.8-0.8-1.4-1.5-1.9-2h2.5V14.2z M48.3,6.9c0.8-0.1,1.8-0.2,3.1-0.4c1.4-0.2,2.8-0.1,4.1,0.4c1.5,0.5,2.7,1.8,3,3.4h-7v-1
					c0-0.4-0.2-0.7-0.6-0.9C50.1,7.8,49.2,7.3,48.3,6.9 M36.4,12.3c4-1.3,8.3-1.3,12.3,0l2,0.7v2.3h-0.2c-0.6-1.6-2.3-2.4-3.9-1.8
					c-0.9,0.3-1.5,1-1.8,1.8h-6.8l-1.7-2.1c-0.2-0.2-0.4-0.4-0.6-0.6L36.4,12.3z M30.8,17.4c-0.2-1.1,0.1-2.3,0.9-3.1
					c0.1-0.1,0.2-0.2,0.3-0.3c0.1,0,0.1-0.1,0.2-0.1l0.4-0.1c0.8-0.2,1.6,0.1,2,0.7l2,2.5c0.1,0.1,0.3,0.2,0.4,0.3l4.3,1.7l-0.6,3.2
					l-7.4-2C32,19.7,31,18.7,30.8,17.4L30.8,17.4z M36.1,30.6l1,3.2L36,36.1c-0.6-1-1.3-1.9-2.1-2.6L36.1,30.6z M30.4,49.7h-0.1v0
					c-2.5,1.3-5.6,1.3-8.1,0v-0.1h-0.1c-4.5-2.3-6.2-7.8-3.9-12.3s7.8-6.2,12.3-3.9c0.2,0.1,0.4,0.2,0.6,0.3l-3.8,4.9
					c-1.6-0.5-3.3,0.3-3.8,1.9s0.3,3.3,1.9,3.8c1.6,0.5,3.3-0.3,3.8-1.9h2.1c-0.2,1-0.7,1.9-1.4,2.6l1.4,1.4c1.1-1.1,1.8-2.5,2-4h2
					C35,45.6,33.2,48.3,30.4,49.7 M41.5,41.6L41.5,41.6l1.5,0.9c-0.2,0.1-0.3,0.2-0.5,0.2C41.9,42.6,41.5,42.1,41.5,41.6L41.5,41.6
					 M43.8,36.8C43.8,36.8,43.8,36.8,43.8,36.8l-1.1-0.6l1.5-2.9l2-3.9l5,0L43.8,36.8z M58.7,50.7c-1.4,0-2.8-0.3-4.1-1v-0.1h-0.1
					c-4.5-2.3-6.2-7.8-4-12.2c0.9-1.7,2.3-3.1,4-4l2.3,5.7c-1.4,1-1.7,2.9-0.7,4.2c1,1.4,2.9,1.7,4.2,0.7c1.4-1,1.7-2.9,0.7-4.2
					c-0.5-0.7-1.4-1.2-2.3-1.3l-2.4-5.8c4.9-1.2,9.8,1.7,11.1,6.6c1.2,4.9-1.7,9.8-6.6,11.1C60.2,50.6,59.5,50.7,58.7,50.7
					 M58.7,40.6c0.6,0,1,0.5,1,1s-0.5,1-1,1s-1-0.5-1-1S58.1,40.6,58.7,40.6L58.7,40.6"/>
				<path id="Trazado_98" class="st1" d="M25.3,46.5l-0.4,2c1.4,0.3,2.8,0.2,4.1-0.4l-0.8-1.9C27.2,46.7,26.2,46.7,25.3,46.5"/>
				<path id="Trazado_99" class="st1" d="M57.7,46.5l-0.4,2c1.4,0.3,2.8,0.2,4.1-0.4l-0.8-1.9C59.7,46.7,58.7,46.7,57.7,46.5"/>
				<path id="Trazado_100" class="st1" d="M62.8,35.8l-1.2,1.6c2.3,1.6,2.8,4.8,1.2,7.1c-0.2,0.2-0.3,0.4-0.5,0.6l1.4,1.4
					c2.8-2.8,2.8-7.3,0-10C63.4,36.3,63.1,36,62.8,35.8L62.8,35.8z"/>
				<rect id="Rectángulo_52" x="23.2" y="12.2" class="st1" width="2" height="2"/>
				<rect id="Rectángulo_53" x="20.2" y="18.3" class="st1" width="2" height="2"/>
				<rect id="Rectángulo_54" x="23.2" y="24.4" class="st1" width="2" height="2"/>
				<rect id="Rectángulo_55" x="41.5" y="49.7" class="st1" width="2" height="2"/>
				<rect id="Rectángulo_56" x="37.4" y="49.7" class="st1" width="2" height="2"/>
			</g>
		</g>
	</g>
	<g id="Grupo_98" transform="translate(1017.13 2518.991)">
		<g>
			<defs>
				<rect id="SVGID_00000003105600318942510690000007111152309487079340_" x="15.1" y="4.3" width="54.7" height="48.4"/>
			</defs>
			<clipPath id="SVGID_00000164493478671342712440000017231581792617085631_">
				<use xlink:href="#SVGID_00000003105600318942510690000007111152309487079340_"  style="overflow:visible;"/>
			</clipPath>
			<g id="Grupo_95-2" style="clip-path:url(#SVGID_00000164493478671342712440000017231581792617085631_);">
				<path id="Trazado_97-2" class="st1" d="M58.7,30.4c-1,0-2,0.1-3,0.4l-1.1-2.6v-2.8h9.1c0.6,0,1-0.5,1-1s-0.5-1-1-1h-1v-0.6
					c0-1.9-1.5-3.4-3.4-3.4l0,0h-5l-0.7-1.4c0.1,0,0.2,0,0.3,0c0.9,0,1.8-0.5,2.2-1.3l0.2-0.4h1.4c0.6,0,1-0.5,1-1v-3h1
					c0.6,0,1-0.5,1-1c0-2.9-1.8-5.4-4.5-6.3c-1.6-0.5-3.3-0.7-5-0.5c-4.6,0.6-5.5,0.7-5.7,0.7c-0.5,0-1,0.3-1.1,0.8
					c-0.2,0.8-0.3,1.1,5.2,3.9v0.7l-0.3-0.1c-4.4-1.5-9.2-1.4-13.6,0l-3.8,1.5c-0.1,0-0.3,0.1-0.4,0.2l-0.1,0v0
					c-0.1,0-0.2,0.1-0.2,0.1h-3.8v2h2c-0.6,1.1-0.7,2.4-0.5,3.6c0,0.2,0.1,0.4,0.2,0.7h-4.8v2h6c0.7,0.7,1.6,1.3,2.6,1.5l0.9,0.3
					c0,0.1,0,0.2,0,0.4l0.5,1.7h-6.9v2h7.5l0.5,1.8l-3.1,4c-5.2-3.3-12.1-1.8-15.4,3.4C14,40.1,14.8,46,18.7,49.7h-3.5v2h6.5
					c2.9,1.4,6.3,1.4,9.2,0h4.5v-2h-1.5c2-1.9,3.2-4.4,3.5-7.1h2.3c0.6,1.6,2.3,2.4,3.9,1.8c1.6-0.6,2.4-2.3,1.8-3.9
					c-0.1-0.2-0.1-0.3-0.2-0.5l-0.1,0c0.1-0.5,0.1-1.1,0-1.6l8.2-8.2l0.6,1.4c-5.5,2.7-7.8,9.3-5.2,14.8c0.6,1.2,1.4,2.3,2.4,3.3
					h-5.5v2h8.6c5.6,2.6,12.2,0.1,14.8-5.5S69,34,63.4,31.5C61.9,30.8,60.3,30.4,58.7,30.4 M52.6,27.4l-5.4,0l0.7-1.5
					c0.1-0.2,0.2-0.3,0.2-0.5h4.5L52.6,27.4z M33.3,40.6c-0.2-1.5-0.9-2.8-1.9-3.9l1.3-1.6c1.5,1.5,2.5,3.4,2.7,5.5H33.3z
					 M29.1,40.6c-0.1-0.2-0.2-0.4-0.3-0.6l1.3-1.7c0.6,0.7,0.9,1.4,1.1,2.3H29.1z M27.3,41.6c0,0.6-0.5,1-1,1c-0.6,0-1-0.5-1-1
					s0.5-1,1-1C26.8,40.6,27.3,41,27.3,41.6L27.3,41.6 M50.6,23.4h-3c-0.6,0-1-0.4-1-1c0,0,0,0,0,0v-1h4.1L50.6,23.4z M48.6,19.3h-2
					v-3c0-0.6,0.5-1,1-1c0.6,0,1,0.5,1,1L48.6,19.3z M44.5,18.4l-1.5-1c-0.1-0.1-0.2-0.1-0.3-0.1l-0.1,0h1.8L44.5,18.4z M41,24.3
					l0.3,0.3L40,27.4h-0.4l0.5-3.4L41,24.3z M39.1,34.1l0.9-1.9l2,1.1l-1,1.9L39.1,34.1z M37.7,37.1l0.5-1.1l2.6,1.5c0,0,0,0,0,0
					l0.2,0.1l1.1,0.6l0.5,0.3c0.4,0.2,0.5,0.7,0.4,1.1l-0.1,0.4L37.7,37.1z M37.6,27.4h-0.3l-1-3.3l-0.4-1.2l2.2,0.6L37.6,27.4z
					 M39,29.4L38.3,31l-0.5-1.6L39,29.4z M37.1,39.1l1.9,1.1c0,0,0,0.1,0,0.1l0.1,0.3h-1.7C37.3,40.1,37.3,39.6,37.1,39.1L37.1,39.1
					z M42.9,31.5l-2-1.1l2.6-5.6c0.2-0.4,0.1-0.8-0.2-1.1L42.6,23l0.6-3l1.3,0.9v1.5c0,1.1,0.6,2.1,1.6,2.7L42.9,31.5z M53.6,23.4
					h-1v-2h4.1v2L53.6,23.4z M60.7,22.7v0.6h-2v-2h0.6C60.1,21.3,60.7,22,60.7,22.7C60.7,22.7,60.7,22.7,60.7,22.7 M51.6,19.3h-1v-2
					H51l1,2L51.6,19.3z M53.8,15.9l-1.2-0.4v-2c0.6,0.6,1.2,1.2,1.8,1.9l-0.2,0.3C54.2,15.9,54,16,53.8,15.9 M56.7,14.2h-0.6
					c-0.8-0.8-1.4-1.5-1.9-2h2.5V14.2z M48.3,6.9c0.8-0.1,1.8-0.2,3.1-0.4c1.4-0.2,2.8-0.1,4.1,0.4c1.5,0.5,2.7,1.8,3,3.4h-7v-1
					c0-0.4-0.2-0.7-0.6-0.9C50.1,7.8,49.2,7.3,48.3,6.9 M36.4,12.3c4-1.3,8.3-1.3,12.3,0l2,0.7v2.3h-0.2c-0.6-1.6-2.3-2.4-3.9-1.8
					c-0.9,0.3-1.5,1-1.8,1.8h-6.8l-1.7-2.1c-0.2-0.2-0.4-0.4-0.6-0.6L36.4,12.3z M30.8,17.4c-0.2-1.1,0.1-2.3,0.9-3.1
					c0.1-0.1,0.2-0.2,0.3-0.3c0.1,0,0.1-0.1,0.2-0.1l0.4-0.1c0.8-0.2,1.6,0.1,2,0.7l2,2.5c0.1,0.1,0.3,0.2,0.4,0.3l4.3,1.7l-0.6,3.2
					l-7.4-2C32,19.7,31,18.7,30.8,17.4L30.8,17.4z M36.1,30.6l1,3.2L36,36.1c-0.6-1-1.3-1.9-2.1-2.6L36.1,30.6z M30.4,49.7h-0.1v0
					c-2.5,1.3-5.6,1.3-8.1,0v-0.1h-0.1c-4.5-2.3-6.2-7.8-3.9-12.3s7.8-6.2,12.3-3.9c0.2,0.1,0.4,0.2,0.6,0.3l-3.8,4.9
					c-1.6-0.5-3.3,0.3-3.8,1.9s0.3,3.3,1.9,3.8c1.6,0.5,3.3-0.3,3.8-1.9h2.1c-0.2,1-0.7,1.9-1.4,2.6l1.4,1.4c1.1-1.1,1.8-2.5,2-4h2
					C35,45.6,33.2,48.3,30.4,49.7 M41.5,41.6L41.5,41.6l1.5,0.9c-0.2,0.1-0.3,0.2-0.5,0.2C41.9,42.6,41.5,42.1,41.5,41.6L41.5,41.6
					 M43.8,36.8C43.8,36.8,43.8,36.8,43.8,36.8l-1.1-0.6l1.5-2.9l2-3.9l5,0L43.8,36.8z M58.7,50.7c-1.4,0-2.8-0.3-4.1-1v-0.1h-0.1
					c-4.5-2.3-6.2-7.8-4-12.2c0.9-1.7,2.3-3.1,4-4l2.3,5.7c-1.4,1-1.7,2.9-0.7,4.2c1,1.4,2.9,1.7,4.2,0.7c1.4-1,1.7-2.9,0.7-4.2
					c-0.5-0.7-1.4-1.2-2.3-1.3l-2.4-5.8c4.9-1.2,9.8,1.7,11.1,6.6c1.2,4.9-1.7,9.8-6.6,11.1C60.2,50.6,59.5,50.7,58.7,50.7
					 M58.7,40.6c0.6,0,1,0.5,1,1s-0.5,1-1,1s-1-0.5-1-1S58.1,40.6,58.7,40.6L58.7,40.6"/>
				<path id="Trazado_98-2" class="st1" d="M25.3,46.5l-0.4,2c1.4,0.3,2.8,0.2,4.1-0.4l-0.8-1.9C27.2,46.7,26.2,46.7,25.3,46.5"/>
				<path id="Trazado_99-2" class="st1" d="M57.7,46.5l-0.4,2c1.4,0.3,2.8,0.2,4.1-0.4l-0.8-1.9C59.7,46.7,58.7,46.7,57.7,46.5"/>
				<path id="Trazado_100-2" class="st1" d="M62.8,35.8l-1.2,1.6c2.3,1.6,2.8,4.8,1.2,7.1c-0.2,0.2-0.3,0.4-0.5,0.6l1.4,1.4
					c2.8-2.8,2.8-7.3,0-10C63.4,36.3,63.1,36,62.8,35.8L62.8,35.8z"/>
				<rect id="Rectángulo_52-2" x="23.2" y="12.2" class="st1" width="2" height="2"/>
				<rect id="Rectángulo_53-2" x="20.2" y="18.3" class="st1" width="2" height="2"/>
				<rect id="Rectángulo_54-2" x="23.2" y="24.4" class="st1" width="2" height="2"/>
				<rect id="Rectángulo_55-2" x="41.5" y="49.7" class="st1" width="2" height="2"/>
				<rect id="Rectángulo_56-2" x="37.4" y="49.7" class="st1" width="2" height="2"/>
			</g>
		</g>
	</g>
	<g id="Grupo_97" transform="translate(885.13 2518.991)">
		<g>
			<defs>
				<rect id="SVGID_00000072273400719734536960000001775915181449910664_" x="15.1" y="4.3" width="54.7" height="48.4"/>
			</defs>
			<clipPath id="SVGID_00000181079194308166688230000000290637143484471743_">
				<use xlink:href="#SVGID_00000072273400719734536960000001775915181449910664_"  style="overflow:visible;"/>
			</clipPath>
			<g id="Grupo_95-3" style="clip-path:url(#SVGID_00000181079194308166688230000000290637143484471743_);">
				<path id="Trazado_97-3" class="st1" d="M58.7,30.4c-1,0-2,0.1-3,0.4l-1.1-2.6v-2.8h9.1c0.6,0,1-0.5,1-1s-0.5-1-1-1h-1v-0.6
					c0-1.9-1.5-3.4-3.4-3.4l0,0h-5l-0.7-1.4c0.1,0,0.2,0,0.3,0c0.9,0,1.8-0.5,2.2-1.3l0.2-0.4h1.4c0.6,0,1-0.5,1-1v-3h1
					c0.6,0,1-0.5,1-1c0-2.9-1.8-5.4-4.5-6.3c-1.6-0.5-3.3-0.7-5-0.5c-4.6,0.6-5.5,0.7-5.7,0.7c-0.5,0-1,0.3-1.1,0.8
					c-0.2,0.8-0.3,1.1,5.2,3.9v0.7l-0.3-0.1c-4.4-1.5-9.2-1.4-13.6,0l-3.8,1.5c-0.1,0-0.3,0.1-0.4,0.2l-0.1,0v0
					c-0.1,0-0.2,0.1-0.2,0.1h-3.8v2h2c-0.6,1.1-0.7,2.4-0.5,3.6c0,0.2,0.1,0.4,0.2,0.7h-4.8v2h6c0.7,0.7,1.6,1.3,2.6,1.5l0.9,0.3
					c0,0.1,0,0.2,0,0.4l0.5,1.7h-6.9v2h7.5l0.5,1.8l-3.1,4c-5.2-3.3-12.1-1.8-15.4,3.4C14,40.1,14.8,46,18.7,49.7h-3.5v2h6.5
					c2.9,1.4,6.3,1.4,9.2,0h4.5v-2h-1.5c2-1.9,3.2-4.4,3.5-7.1h2.3c0.6,1.6,2.3,2.4,3.9,1.8c1.6-0.6,2.4-2.3,1.8-3.9
					c-0.1-0.2-0.1-0.3-0.2-0.5l-0.1,0c0.1-0.5,0.1-1.1,0-1.6l8.2-8.2l0.6,1.4c-5.5,2.7-7.8,9.3-5.2,14.8c0.6,1.2,1.4,2.3,2.4,3.3
					h-5.5v2h8.6c5.6,2.6,12.2,0.1,14.8-5.5S69,34,63.4,31.5C61.9,30.8,60.3,30.4,58.7,30.4 M52.6,27.4l-5.4,0l0.7-1.5
					c0.1-0.2,0.2-0.3,0.2-0.5h4.5L52.6,27.4z M33.3,40.6c-0.2-1.5-0.9-2.8-1.9-3.9l1.3-1.6c1.5,1.5,2.5,3.4,2.7,5.5H33.3z
					 M29.1,40.6c-0.1-0.2-0.2-0.4-0.3-0.6l1.3-1.7c0.6,0.7,0.9,1.4,1.1,2.3H29.1z M27.3,41.6c0,0.6-0.5,1-1,1c-0.6,0-1-0.5-1-1
					s0.5-1,1-1C26.8,40.6,27.3,41,27.3,41.6L27.3,41.6 M50.6,23.4h-3c-0.6,0-1-0.4-1-1c0,0,0,0,0,0v-1h4.1L50.6,23.4z M48.6,19.3h-2
					v-3c0-0.6,0.5-1,1-1c0.6,0,1,0.5,1,1L48.6,19.3z M44.5,18.4l-1.5-1c-0.1-0.1-0.2-0.1-0.3-0.1l-0.1,0h1.8L44.5,18.4z M41,24.3
					l0.3,0.3L40,27.4h-0.4l0.5-3.4L41,24.3z M39.1,34.1l0.9-1.9l2,1.1l-1,1.9L39.1,34.1z M37.7,37.1l0.5-1.1l2.6,1.5c0,0,0,0,0,0
					l0.2,0.1l1.1,0.6l0.5,0.3c0.4,0.2,0.5,0.7,0.4,1.1l-0.1,0.4L37.7,37.1z M37.6,27.4h-0.3l-1-3.3l-0.4-1.2l2.2,0.6L37.6,27.4z
					 M39,29.4L38.3,31l-0.5-1.6L39,29.4z M37.1,39.1l1.9,1.1c0,0,0,0.1,0,0.1l0.1,0.3h-1.7C37.3,40.1,37.3,39.6,37.1,39.1L37.1,39.1
					z M42.9,31.5l-2-1.1l2.6-5.6c0.2-0.4,0.1-0.8-0.2-1.1L42.6,23l0.6-3l1.3,0.9v1.5c0,1.1,0.6,2.1,1.6,2.7L42.9,31.5z M53.6,23.4
					h-1v-2h4.1v2L53.6,23.4z M60.7,22.7v0.6h-2v-2h0.6C60.1,21.3,60.7,22,60.7,22.7C60.7,22.7,60.7,22.7,60.7,22.7 M51.6,19.3h-1v-2
					H51l1,2L51.6,19.3z M53.8,15.9l-1.2-0.4v-2c0.6,0.6,1.2,1.2,1.8,1.9l-0.2,0.3C54.2,15.9,54,16,53.8,15.9 M56.7,14.2h-0.6
					c-0.8-0.8-1.4-1.5-1.9-2h2.5V14.2z M48.3,6.9c0.8-0.1,1.8-0.2,3.1-0.4c1.4-0.2,2.8-0.1,4.1,0.4c1.5,0.5,2.7,1.8,3,3.4h-7v-1
					c0-0.4-0.2-0.7-0.6-0.9C50.1,7.8,49.2,7.3,48.3,6.9 M36.4,12.3c4-1.3,8.3-1.3,12.3,0l2,0.7v2.3h-0.2c-0.6-1.6-2.3-2.4-3.9-1.8
					c-0.9,0.3-1.5,1-1.8,1.8h-6.8l-1.7-2.1c-0.2-0.2-0.4-0.4-0.6-0.6L36.4,12.3z M30.8,17.4c-0.2-1.1,0.1-2.3,0.9-3.1
					c0.1-0.1,0.2-0.2,0.3-0.3c0.1,0,0.1-0.1,0.2-0.1l0.4-0.1c0.8-0.2,1.6,0.1,2,0.7l2,2.5c0.1,0.1,0.3,0.2,0.4,0.3l4.3,1.7l-0.6,3.2
					l-7.4-2C32,19.7,31,18.7,30.8,17.4L30.8,17.4z M36.1,30.6l1,3.2L36,36.1c-0.6-1-1.3-1.9-2.1-2.6L36.1,30.6z M30.4,49.7h-0.1v0
					c-2.5,1.3-5.6,1.3-8.1,0v-0.1h-0.1c-4.5-2.3-6.2-7.8-3.9-12.3s7.8-6.2,12.3-3.9c0.2,0.1,0.4,0.2,0.6,0.3l-3.8,4.9
					c-1.6-0.5-3.3,0.3-3.8,1.9s0.3,3.3,1.9,3.8c1.6,0.5,3.3-0.3,3.8-1.9h2.1c-0.2,1-0.7,1.9-1.4,2.6l1.4,1.4c1.1-1.1,1.8-2.5,2-4h2
					C35,45.6,33.2,48.3,30.4,49.7 M41.5,41.6L41.5,41.6l1.5,0.9c-0.2,0.1-0.3,0.2-0.5,0.2C41.9,42.6,41.5,42.1,41.5,41.6L41.5,41.6
					 M43.8,36.8C43.8,36.8,43.8,36.8,43.8,36.8l-1.1-0.6l1.5-2.9l2-3.9l5,0L43.8,36.8z M58.7,50.7c-1.4,0-2.8-0.3-4.1-1v-0.1h-0.1
					c-4.5-2.3-6.2-7.8-4-12.2c0.9-1.7,2.3-3.1,4-4l2.3,5.7c-1.4,1-1.7,2.9-0.7,4.2c1,1.4,2.9,1.7,4.2,0.7c1.4-1,1.7-2.9,0.7-4.2
					c-0.5-0.7-1.4-1.2-2.3-1.3l-2.4-5.8c4.9-1.2,9.8,1.7,11.1,6.6c1.2,4.9-1.7,9.8-6.6,11.1C60.2,50.6,59.5,50.7,58.7,50.7
					 M58.7,40.6c0.6,0,1,0.5,1,1s-0.5,1-1,1s-1-0.5-1-1S58.1,40.6,58.7,40.6L58.7,40.6"/>
				<path id="Trazado_98-3" class="st1" d="M25.3,46.5l-0.4,2c1.4,0.3,2.8,0.2,4.1-0.4l-0.8-1.9C27.2,46.7,26.2,46.7,25.3,46.5"/>
				<path id="Trazado_99-3" class="st1" d="M57.7,46.5l-0.4,2c1.4,0.3,2.8,0.2,4.1-0.4l-0.8-1.9C59.7,46.7,58.7,46.7,57.7,46.5"/>
				<path id="Trazado_100-3" class="st1" d="M62.8,35.8l-1.2,1.6c2.3,1.6,2.8,4.8,1.2,7.1c-0.2,0.2-0.3,0.4-0.5,0.6l1.4,1.4
					c2.8-2.8,2.8-7.3,0-10C63.4,36.3,63.1,36,62.8,35.8L62.8,35.8z"/>
				<rect id="Rectángulo_52-3" x="23.2" y="12.2" class="st1" width="2" height="2"/>
				<rect id="Rectángulo_53-3" x="20.2" y="18.3" class="st1" width="2" height="2"/>
				<rect id="Rectángulo_54-3" x="23.2" y="24.4" class="st1" width="2" height="2"/>
				<rect id="Rectángulo_55-3" x="41.5" y="49.7" class="st1" width="2" height="2"/>
				<rect id="Rectángulo_56-3" x="37.4" y="49.7" class="st1" width="2" height="2"/>
			</g>
		</g>
	</g>
	<g id="Grupo_94" transform="translate(1080.264 2287.055)">
		<g>
			<defs>
				<rect id="SVGID_00000106868414358753278910000014033052145425513889_" x="15.1" y="4.3" width="631.9" height="280.3"/>
			</defs>
			<clipPath id="SVGID_00000153671621598246688700000004587664208305545601_">
				<use xlink:href="#SVGID_00000106868414358753278910000014033052145425513889_"  style="overflow:visible;"/>
			</clipPath>
			
				<g id="Grupo_93" transform="translate(0 0)" style="clip-path:url(#SVGID_00000153671621598246688700000004587664208305545601_);">
				<path id="Trazado_88" class="st5" d="M310.7,4.9c-3.5,1.9-6.8,4.2-9.8,6.9c-1.6,1.5-2.8,3.3-3.8,5.3c-2.5,4.6-5.8,8.8-9.8,12.1
					c-2.4,2.1-4.7,4.4-6.8,6.8c-1.4,1.6-4.8,5.2-7.5,8c-5,5.1-6.4,6.8-9.5,11.8c-2.5,3.8-5.6,7.2-9.3,9.9
					c-6.1,4.9-11.8,10.1-17.3,15.6c-3.5,3.5-7.9,7.6-9.7,9c-8.6,6.8-14.7,12.5-17.4,16.1c-1.5,2.2-2.7,4.6-3.9,7
					c-1.3,2.7-2.8,5.4-4.4,7.9c-3.8,5.6-12.4,15-16.3,17.8c-2.7,1.7-5.4,3.3-8.3,4.7c-11.1,5.4-21,13.1-29.1,22.5
					c-2,2.4-4.8,5.4-6.2,6.8c-4.3,4-9,7.5-14,10.6c-1.8,1.2-4.6,3-6.2,3.9c-4.2,2.9-7.9,6.5-11,10.5c-4,5.4-6.1,9.4-9.7,19.2
					c-1.1,3.1-2.6,6.6-3.1,7.8c-2.4,5-6.2,9.2-10.9,12.1c-2.9,1.9-12.6,6.7-21.2,10.6c-2.2,1-4.4,2.1-6.5,3.4
					c-2.5,1.6-13.8,12.9-18.9,18.9c-2.1,2.4-4.9,6.1-6.4,8.3l-2.6,3.9h-7.5c-2.7-0.1-5.4,0-8.1,0.3c-0.6,0.4-0.8,1.8-0.2,1.8
					c6.2,0.1,44.7-0.1,44.9-0.2c0.4-0.2,0.3-1.2-0.1-1.6c-0.3-0.3-3.6-0.4-13.2-0.4c-7.1,0-12.9-0.1-12.9-0.2c1.5-2.6,3.2-5,5-7.3
					c0.7-0.9,2.5-2.9,3.8-4.6c1.4-1.7,3.8-4.3,5.4-5.8c1.5-1.5,4.3-4.3,6.1-6.1c1.6-1.7,3.4-3.4,5.3-4.8c2.5-1.6,5.1-3,7.8-4.1
					c18.2-8.5,22.8-11.1,26.9-15.5c3.2-3.7,5.7-8.1,7.4-12.7c1.6-4.7,3.4-9.3,5.6-13.7c2.3-4.7,5.4-8.9,9-12.6
					c3.1-3.2,3.6-3.6,13-9.6c7.6-4.8,14.4-10.7,20.2-17.6c3.3-3.8,6.9-7.4,10.7-10.7c5.4-4.3,11.2-8,17.3-11.1
					c9-4.5,10.7-5.8,17-12.8c7.1-7.8,10.1-12,13.2-18.9c2.1-4.5,2.7-5.5,5.4-8.6c2.7-3.2,7.3-7.3,16.6-14.7c2.3-1.9,4.6-3.9,6.6-6.2
					c3.7-4.1,10.5-10.4,20-18.2c3.8-3,7-6.6,9.5-10.8c2.2-3.7,5-7.1,8.2-10c1.9-1.9,5.1-5.2,7.1-7.4c2-2.3,5.2-5.5,7-7.2
					c5.9-5.3,7.8-7.8,11.8-14.9c0.6-1.1,1.3-2.1,2.2-3c2.7-2.4,5.7-4.4,8.8-6.2c1.8-0.9,2-0.9,3.4-0.6c2.3,0.6,6.2,2.8,10.1,5.7
					c8.4,6.2,18.3,17.1,28,30.7c8,11.1,13.2,17.1,21,23.9c5.9,5.2,6.6,5.7,14.8,11.2c10.3,6.9,10.6,7.2,17.1,13.6
					c2.9,2.6,5.5,5.6,7.8,8.7c6.6,9.4,9.6,13.2,14.6,18.3c7,7.1,11.8,12.7,14.8,16.9c3.6,5.1,6.7,8.3,10.2,10.6
					c1.4,0.9,4.2,2.7,6.2,4c5.4,3.5,18,12.3,20.4,14.1c3.6,2.9,8.1,7.7,9.3,10.2l0.5,0.9l-1.8,1.1c-1,0.6-3.9,2.5-6.6,4.2
					c-2.6,1.7-6.1,3.8-7.6,4.7s-3.8,2.2-5,3s-3.9,2.3-5.9,3.4l-3.8,2.1l-0.9-0.7c-1.2-0.8-2.4-1.5-3.6-2.2c-1.8-1-3.5-2.1-5.1-3.2
					c-3.4-2.7-7-5.2-10.7-7.5c-5.8-3.7-11.4-7.7-16.8-12.1c-8.8-7-11.1-9.1-17-15.2c-4.9-5.3-10.4-10-16.4-14.1
					c-4.7-3.4-15.8-10.4-20.8-13.1c-3.9-2.2-8.9-4.4-9.7-4.3c-0.4,0.1-0.7,0.4-0.7,0.8c-0.1,0.6,0.5,0.9,4.3,2.9
					c2.4,1.2,5.4,2.7,6.6,3.4c5.7,3.3,16.8,10.5,21.8,14.2c5,3.6,6.6,5.1,13.8,12.3c4.8,4.9,9.8,9.5,15.2,13.8
					c5.8,4.8,11.8,9.2,18.1,13.2c3.4,2.2,7.4,4.9,8.8,6.1c2.6,2.1,5.4,3.9,8.3,5.5c0.9,0.4,1.7,1,2.4,1.6c0.1,0.2-0.3,0.6-0.9,0.9
					c-2.1,1.7-4.1,3.4-5.9,5.3c-4.3,4.2-5.4,5.1-9.2,7.4c-5.3,3.2-10.3,6.9-12.6,9.2c-1.1,1.1-1.9,1.7-2.2,1.6
					c-0.2-0.1-1.3-0.9-2.4-1.8s-3.3-2.5-4.9-3.6c-2.7-2.1-5.3-4.4-7.8-6.7c-2.7-2.6-6.3-5.8-8-7.2c-1.7-1.4-4.5-4-6.3-5.7
					s-4.6-4.5-6.3-6.1s-5.3-5.5-7.9-8.6c-6.6-7.8-11.1-12-16.6-15.7c-5.2-3.4-6.3-4.5-20.1-19.8c-18.4-20.4-23.2-25.3-26.3-26.8
					c-2.1-1-4.6-1.1-6.8-0.3c-3.4,1-5.9,3-9.8,7.7c-1.3,1.6-3.7,4.5-5.4,6.4c-1.7,1.9-4.3,4.9-5.7,6.7c-4.7,5.9-7.3,7.9-17.2,14.2
					c-7.2,4.5-9.3,6-11.7,8.6c-2.5,2.6-4.2,5.2-6.8,10.3c-1.1,2.2-2.5,4.3-4,6.3c-1.1,1.2-2.9,3.6-4,5.2c-1.7,2.7-4,5-6.6,6.8
					c-1.3,0.9-3.3,2.5-4.5,3.6c-1.7,1.4-3.4,2.7-5.2,3.9c-9.2,5.9-13.2,8.9-18.9,14.1c-1.6,1.5-4.5,4-6.5,5.7
					c-3.7,2.9-7.1,6.3-10,10c-4,4.9-5.7,6.3-14.7,13.3c-4,3.1-8.1,6.4-9,7.2c-2.2,2.1-3.8,4.8-7,11.1c-4.4,9-9.9,16.4-14.1,19.1
					c-1.3,0.8-3,2-4,2.6c-1.1,0.7-2.3,1.4-3.4,2l-1.8,0.8h-35l1.8-1.9c0.7-0.6,1.3-1.3,1.8-2.1c0-0.5,3.6-4.8,6.7-8.2
					c1.8-1.9,6-6.3,9.4-9.6c2.2-2.1,4.2-4.3,6.1-6.6c0-0.6-0.5-1-1-1c-0.2,0-0.3,0-0.4,0.1c-0.7,0.4-9.2,9-14.9,15
					c-2.3,2.4-5.4,6.1-6.9,8.1c-4.6,6-5.4,6.3-18.7,6.3c-5.1,0-9.5,0-9.8,0.2c-0.5,0.1-0.8,0.7-0.7,1.2c0,0.1,0.1,0.3,0.2,0.4
					c0.3,0.3,14.5,0.4,81.7,0.4c44.7,0,81.9-0.1,82.7-0.2c1.4-0.2,1.9-0.6,1.6-1.5c-0.2-0.4-2.1-0.5-14.5-0.5
					c-7.8,0-14.3-0.1-14.3-0.2c0-0.1,0.7-1.3,1.5-2.8c2.2-3.8,10-12.2,14.6-15.7c5.3-4.1,6.1-4.9,9.2-9c4-5.4,8.3-10.5,12.9-15.3
					c2.8-2.7,5.6-4.7,10.8-7.5c2.1-1.1,4.6-2.6,5.5-3.1c6.2-3.9,19.2-15.8,22.8-20.8c2.2-3,3.4-5.5,5.6-11.1
					c1.1-2.9,2.6-6.1,3.1-7.2c1-1.9,10.3-15.3,10.4-15.2c0,0-0.2,1.2-0.5,2.7c-0.9,3.8-1.1,8.5-0.5,11c1,3.4,2.6,6.6,4.9,9.4
					c1.8,2.4,11.1,11.9,22.8,23.2c4.2,4.1,5.6,5.6,7.4,8.4c1.8,2.7,3.9,5.2,6.2,7.5c2.2,2.3,5.1,5.5,6.6,7.2c2,2.3,2.8,3.1,3.4,3.1
					c0.9,0,1.2-0.7,0.7-1.7c-0.5-1-4.2-5.2-8.9-10c-2.2-2.3-4.3-4.8-6.1-7.5c-2.1-3-3.2-4.4-8-8.9c-10.9-10.5-20.7-20.3-22.6-22.9
					c-2-2.5-3.5-5.5-4.4-8.6c-0.9-4,0.4-12.2,2.7-16.2c0.6-1.1,1.4-2.5,1.7-3.1c0.9-1.3,1.9-2.6,3-3.8c2.3-2.4,4-5.2,4.9-8.4
					c0.5-2.3,0.2-8.3-0.6-11.6c-1.3-5.2-4.1-11.7-8.6-20.1c-0.9-1.5-1.6-3.1-2.2-4.7c-0.3-1.2-0.3-1.2,0.5-1
					c2.8,0.7,7.3,5,20.9,20.1c13.3,14.8,20.2,22.2,21.8,23.6c0.8,0.7,3.2,2.3,5.2,3.6c3.1,2,4.5,3.2,8.6,7.3
					c2.7,2.7,6.6,6.8,8.5,9.2c6.3,7,13.1,13.6,20.2,19.8c1.6,1.3,5.1,4.5,7.7,7c2.3,2.2,4.7,4.3,7.2,6.3c2.8,1.9,8.1,6,8.1,6.3
					c-0.3,0.5-0.6,0.9-0.9,1.3c-1.5,1.9-4.5,3.9-8.6,5.8c-2.1,1-5.6,2.9-7.8,4.2c-2.2,1.3-5.8,3.4-7.9,4.6s-5.4,3.3-7.4,4.5
					c-2.2,1.4-4.5,2.8-6.9,4c-5.2,2.5-7.2,4-10.1,7.3c-1.7,1.9-3.5,3.7-5.5,5.3c-6.7,5.4-14.2,11.2-16.9,13.1
					c-7.5,5.3-8.8,6.3-10.5,8.1l-1.8,2l-22.8,0.2l-22.8,0.2l-0.1,0.7c-0.1,0.4,0.1,0.8,0.5,1c0.6,0.4,165.7,0.5,166.2,0.2
					c0.6-0.3,0.3-1.4-0.5-1.6c-0.5-0.2-12.7-0.3-32.6-0.3h-31.9l1.2-0.9c0.7-0.5,2.1-1.6,3.2-2.3c1.6-1.1,3-2.4,4.3-3.8
					c4.2-4.6,6.8-6.8,13.2-11c2.9-2,5.8-4.1,8.5-6.4c2.2-1.9,5.6-4.7,7.5-6.2c1.9-1.6,4.4-3.6,5.5-4.5s2.8-2.2,3.7-3
					c2.7-2.2,5.7-3.9,9-5.2c4.3-1.7,8.4-4.2,11.9-7.2c6-4.8,10.1-9.3,12.4-13.7c0.8-1.6,0.7-2.6-0.2-2.6c-0.5,0-0.7,0.3-2.9,3.7
					c-2.3,3.5-5.2,6.7-8.5,9.3c-6.2,5.2-7,5.6-16.2,9.9c-1.6,0.7-3.1,1.5-4.5,2.4c-1.8,1.3-18,14.4-20.7,16.8
					c-2.2,1.8-4.4,3.4-6.8,4.9c-6.8,4.5-9.6,6.8-14.3,12c-1.2,1.2-2.5,2.3-3.9,3.3c-0.9,0.6-1.7,1.2-2.6,1.9
					c-0.6,0.4-1.2,0.8-1.8,1.1c-0.7,0.3-1.3,0.7-1.8,1.2c-0.2,0.4-3.4,0.5-24.9,0.5l-24.7,0l2-1.9c2-1.7,4-3.3,6.2-4.7
					c3.9-2.6,10.8-7.9,19.2-14.7c2.2-1.8,4.2-3.7,6.1-5.8c2.5-3,5.7-5.3,9.3-6.8c1.4-0.7,4.6-2.4,7-4c2.4-1.5,6.5-4,9.2-5.6
					c2.6-1.5,6.2-3.6,7.8-4.5c1.6-1,4.8-2.7,7.1-3.8c5.8-2.8,8.2-4.9,11.3-9.8c1.6-2.5,6.6-6.3,15.5-11.8c2.6-1.7,5-3.7,7.1-6
					c3.6-3.8,7.9-7,12.6-9.3c2-1.1,4.7-2.6,5.8-3.4c1.2-0.7,3.7-2.2,5.5-3.3c3.1-1.8,5.9-3.5,14.8-9.3c1.9-1.2,6.1-4.2,9.4-6.6
					c9.6-6.9,13.4-9.2,14.7-8.7c0.5,0.5,0.9,1.1,1.2,1.8c0.9,2,1.2,4.7,1.5,12.2c0.4,10.3,0.6,11.3,5.8,21.2
					c3.9,7.6,4.6,9.7,5.3,15.4c0.7,5.9,1.5,8.5,4,11.8c2.8,3.6,5.9,6.9,9.3,9.9c3.5,2.8,6.7,6,9.5,9.5c1.5,2.2,6.3,10.2,10.2,17.1
					c0.9,1.6,1.8,3,2,3.3c0.3,0.4,0.9,0.6,1.4,0.2c0.2-0.2,0.4-0.4,0.4-0.6c0.1-0.7-0.4-1.6-7.8-14.2c-4.4-7.6-7-10.8-12.2-15.2
					c-4.2-3.5-9.4-8.9-11.3-11.8c-1.9-2.8-2.6-5.1-3.2-10c-0.8-6.7-1.6-9.1-5.5-16.2c-3.5-6.4-4.7-9.6-5.2-12.9
					c-0.1-0.7-0.3-4.5-0.5-8.4c-0.4-9-0.6-10.5-2.1-13.1c-0.2-0.3,2.4,0.3,3.8,0.9c1.8,0.8,3.3,2.5,5.9,6.7
					c6.9,10.7,14.8,20.7,23.6,29.9c2.6,2.6,5.9,6.2,7.4,7.9s4.2,4.8,6,6.9c4.9,5.5,8.8,10.2,11.7,14.2c2.4,3.3,6.8,8.8,13.7,17.4
					c1.5,1.9,4.3,5.1,6.1,7.1c3.8,4.2,4.8,5.8,7.4,11.6c3.2,7,4.5,8.9,9.4,13.6c1.2,1.1,2.3,2.2,3.4,3.5c0,0.1-18,0.3-39.9,0.3
					l-39.9,0.1l-0.1,0.6c-0.1,0.4,0.1,0.7,0.3,1c0.3,0.3,14.1,0.3,56.3,0.3l55.8-0.1v-1.8l-14.6-0.1l-14.6-0.1l-0.8-1
					c-0.4-0.5-2.5-2.6-4.5-4.6c-1.8-1.7-3.4-3.5-4.9-5.4c-1.3-2.3-2.5-4.6-3.6-7c-2.8-6-4.3-8.4-7.1-11.4
					c-3.6-3.9-5.7-6.3-10.4-12.4c-2.6-3.3-5.5-6.9-6.5-8.1c-1-1.2-2.8-3.6-4.1-5.3c-4.4-6-16.3-19.8-23.6-27.2
					c-9-9.3-19.3-22.2-24.8-31.3c-0.9-1.6-2-3.1-3.1-4.6c-2.6-2.8-6.4-4.2-10.2-3.8c-3.4,0.2-6.4,1.9-15.3,8.3
					c-4.1,2.9-7.6,5.3-7.7,5.3c-0.7-0.6-1.3-1.4-1.8-2.2c-3-3.9-6.4-7.3-10.3-10.3c-1.9-1.4-7.6-5.3-17.2-12
					c-0.8-0.5-2.9-1.9-4.8-3.1c-6.2-3.8-8.7-6.2-13-12.5c-2.2-3.2-6.9-8.6-13-14.9c-6.3-6.5-8.6-9.3-15-18.4
					c-2.8-4.2-6.2-8.1-10-11.5c-6.7-6.3-6.6-6.2-15.8-12.3c-3.7-2.5-7.6-5.1-8.6-5.9c-2.7-2-11.7-10-13.9-12.3
					c-5.3-5.9-10.3-12.2-14.9-18.8c-5.3-7.4-11.2-14.4-17.6-20.9c-3.7-3.8-7.7-7.2-12-10.1C317.5,4.7,313.6,3.5,310.7,4.9
					 M313.6,119.8c0,0.5,1.9,4.6,4.2,9.2c2,3.8,3.8,7.7,5.4,11.7c2.2,6.7,2.8,12.3,1.5,16c-0.9,2.5-2,4.1-5.6,8
					c-4.1,4.4-6,6.8-11.3,14.3c-5.8,8.2-7,10.2-9.3,16.1c-4,10.1-5.9,12.8-14.2,20.5c-8.2,7.6-12.1,10.4-18.4,13.9
					c-4,2-7.7,4.5-11.1,7.4c-4.7,4.7-9,9.8-13,15.1c-3.7,4.9-4.9,6.2-8.3,8.7c-4.1,3.1-5.5,4.4-10.3,9.6c-3.4,3.7-5.2,5.9-6.2,7.6
					c-0.7,1.2-1.5,2.4-2.4,3.4l-1,1h-33.5c-33.3,0-33.4,0-32.7-0.6c1-0.7,2.1-1.4,3.2-2c5.6-3.3,11-10.4,16.5-21.3
					c4.4-8.9,4.5-9,16.5-18.2c7.3-5.6,10-8.1,13.8-12.7c3.2-4,4.1-4.8,9.1-9.1c1.9-1.7,4.9-4.3,6.6-5.8c5.8-5.3,12.2-10.1,19-14.1
					c2-1.3,3.8-2.7,5.6-4.2c1.7-1.5,3.9-3.2,4.9-3.9c2.5-1.6,4.6-3.7,6.1-6.3c1.1-1.6,2.8-3.8,3.8-4.9c2.1-2.4,3.9-5,5.2-7.9
					c1.2-2.6,2.7-5.1,4.6-7.4c2.1-2.8,4.2-4.5,9.6-7.9c14.1-9,16-10.5,20.6-16.2c1.4-1.7,3.9-4.7,5.6-6.6s4.5-5.2,6.2-7.3
					c3.2-4,4.9-5.5,7.4-6.4C313.6,118.8,313.6,118.8,313.6,119.8"/>
				<path id="Trazado_89" class="st5" d="M284.2,172.7c-0.8,0.3-8.8,7.5-10.9,9.9c-0.9,1-3.1,3.6-4.7,5.8c-3,3.8-6.5,7.3-14.6,14.6
					c-1.5,1.2-2.8,2.6-4,4.1c-1.4,2.6-6.5,8.4-14.3,16.1c-7.6,7.5-9.7,10.1-9.7,12c0,1.5,1,2,3.5,1.9c4.3-0.4,8.1-2.9,16.6-11.2
					c3.5-3.4,8.4-8.5,10.8-11.1c5.2-5.8,6-6.5,10.6-10c6.8-4.8,12-11.6,14.9-19.4c0.8-2,1.8-4,2.8-5.9c2.1-3.7,2.3-5.1,1.2-6.2
					C285.6,172.3,285.3,172.2,284.2,172.7 M283.2,178.5c-1.2,2.1-2.2,4.3-3.1,6.5c-2.7,7.2-7.5,13.4-13.8,17.9
					c-4.5,3.3-6.2,4.9-11.5,10.9c-5,5.6-14.8,15.3-17.5,17.3c-3.4,2.5-6.8,4.1-8.4,3.8c-0.7-0.1-0.6-0.2,0.7-2
					c0.8-1.1,4.9-5.4,9-9.6c7-7.1,11-11.5,13.1-14.8c1.6-1.9,3.4-3.6,5.4-5.2c6.8-5.9,10.4-9.5,13.8-13.9c1.7-2.2,3.8-4.7,4.6-5.6
					c2.1-2.3,9.2-8.6,9.3-8.3C284.3,176.5,283.8,177.5,283.2,178.5"/>
				<path id="Trazado_90" class="st5" d="M223.8,218.3c-0.4,0.2-0.8,0.4-1.1,0.7c-0.3,0.3-2.1,1.3-3.8,2.3c-6.6,3.6-9.2,6-14.2,13.4
					c-3.2,5-7.4,9.3-12.4,12.6c-2.2,1.5-4.3,3.2-6.3,5c-4.2,4.2-10.1,13.9-11.1,18.3c-1.2,5,0.8,7.2,6.5,7.2c2.7,0.1,5.5-0.5,8-1.6
					c2.6-1.3,5-4.6,8.2-11c1-2.1,2.1-4.1,3.4-6c0.9-1.1,2.2-2.8,3-3.8c1.1-1.5,2.1-3.1,3-4.7c1.5-2.7,3.7-6.2,8.8-13.9
					c1.4-2,2.8-4,4.5-5.8c3.5-3.8,4.5-5.1,5.8-7.6c1.4-2.5,1.5-3.3,0.7-4.4C226.2,218.1,224.9,217.9,223.8,218.3 M223.9,222.2
					c-1,2-1.9,3.2-5.5,7.1c-1.7,2-3.4,4.1-4.8,6.3c-5.7,8.7-6.8,10.5-8.6,13.6c-1.4,2.3-2.9,4.6-4.6,6.8c-1.3,1.7-2.6,3.4-3.6,5.3
					c-0.5,1.1-1.7,3.4-2.6,5.1c-1.9,3.8-2.9,5.3-4.6,6.8c-1.7,1.5-4.6,2.4-8,2.4c-3,0.1-4.5-0.5-4.8-1.8c-0.6-2.3,1.8-7.8,6-14
					c3.1-4.6,5.1-6.7,8.4-9.1c8.8-6.1,10.5-7.8,15.4-15c3-4.5,5.8-7.7,8.2-9.4c3.1-2.1,6.3-3.9,9.7-5.6
					C224.6,220.6,224.3,221.3,223.9,222.2"/>
				<path id="Trazado_91" class="st5" d="M311.9,7.5c-0.3,0.8,0.8,3.3,2.4,5.7c0.8,1.3,2.6,3.8,3.8,5.6c3.7,5.8,6.8,11.9,9.5,18.2
					c2.5,6.6,2.1,10.5-1.4,15.5c-1.4,2.1-4.6,5.6-10.6,11.7c-5.7,5.8-10.9,11.8-12.8,14.8c-0.7,1-2.4,4.1-3.9,6.7
					c-3.4,6.2-5.5,8.5-12.1,12.8c-2.6,1.7-5.1,3.6-7.6,5.6c-6.7,5.8-13.9,12.3-15,13.5c-1.4,1.5-1.4,2.6-0.2,2.7
					c0.6,0.1,1.4-0.5,3.8-2.9c2.7-2.6,11.6-10.6,15-13.4c0.6-0.5,2.8-2,4.9-3.4c4.9-3.2,7.6-5.4,9.2-7.4c0.7-0.9,2.5-3.8,4-6.6
					c1.5-2.7,3.4-5.9,4.2-7c1.9-2.9,6.9-8.5,12.6-14.4c8.3-8.5,10.4-11.1,12.2-14.9c1-2,1-2.2,1-6c0-3.7-0.1-4.2-1-6.9
					c-2.3-5.6-4.9-11.1-8-16.4c-1-1.7-2.8-4.4-4-6c-1.7-2.3-3.1-4.7-4.2-7.3C313.6,6.9,312.2,6.8,311.9,7.5"/>
				<path id="Trazado_92" class="st5" d="M235.3,148.2c-0.2,0.1-1.5,1.6-3,3.3c-4.6,5.1-9.5,9.8-14.7,14.2
					c-4.8,3.8-13.2,10.1-16.6,12.5c-8.9,6.2-11.6,8.5-18.5,16.3c-1.7,1.9-4.6,5-6.4,7c-3.7,4-7.1,8.2-10.2,12.7
					c-1.1,1.6-3.4,4.5-5,6.6c-3.2,4-3.5,4.8-1.9,4.8c0.8,0,1.3-0.5,3.5-3.2c1.5-1.8,3.8-4.9,5.2-6.9c3.3-4.9,7-9.4,11-13.7
					c2.3-2.5,5.8-6.3,7.7-8.4c5-5.6,4.3-5.1,20.2-16.7c6.6-4.9,11.1-8.3,14.8-11.5c4.9-4.3,9.6-9,13.9-13.9c1.5-1.9,1.7-2.3,1.5-2.8
					c-0.2-0.4-0.6-0.7-1.1-0.5C235.5,148.1,235.4,148.1,235.3,148.2"/>
				<path id="Trazado_93" class="st5" d="M168.1,186.5c-1.7,2.3-4.1,5.2-5.3,6.4c-2.9,3.1-12.6,11.7-21.1,18.9
					c-11.7,9.8-16,14-26.7,26.3c-7.5,8.6-9.7,11.1-13.8,15.4c-3.5,3.8-6.6,8-9.1,12.6c-2.1,3.6-2.3,4.6-0.9,4.7
					c0.7,0.1,1-0.2,2.7-3.3c2.6-4.8,5.9-9.3,9.6-13.2c2-2.2,6.4-7,9.7-10.8s6.9-7.9,8-9.2c2.6-2.9,10.5-10.9,14.1-14.2
					c1.5-1.4,5.4-4.7,8.6-7.4c7.7-6.5,18-15.7,20.4-18.3c1-1.1,3.4-4,5.1-6.3c3.3-4.3,3.8-5.4,2.4-5.6
					C171.4,182.4,170.6,183.3,168.1,186.5"/>
				<path id="Trazado_94" class="st5" d="M341.2,203.2c-0.3,0.1-0.5,0.4-0.5,0.7c0,0.2,2,1.9,4.4,3.7c3.5,2.6,6.7,5.5,9.7,8.6
					c4.7,4.4,8.8,9.3,12.4,14.7c4.3,6.2,9.5,12.4,10.5,12.4c1.6,0,1.1-1.1-2.5-5.4c-1.9-2.3-4.6-5.7-5.9-7.7
					c-3.1-4.8-6.8-9.2-10.8-13.2c-5.8-6-7.7-7.7-12.2-11C342.3,203,342,202.8,341.2,203.2"/>
				<path id="Trazado_95" class="st5" d="M543.5,216.1c-1,1.2,1.7,5.9,9.2,15.9c3.2,4.2,6.5,8.7,7.4,10c3.9,5.7,10.3,18.3,12.2,23.7
					c2.6,7.6,5.1,11.3,8.6,12.8c2.9,1.2,10,0.7,12.2-0.9c2.1-1.5,1.9-3.5-0.6-6.2c-4-4.8-7.6-9.7-11-14.9c-1.6-2.4-3.4-4.6-5.3-6.8
					c-1.8-2-4.6-5.5-6.2-7.7c-2-2.7-4.1-5.2-6.3-7.6c-1.9-2-5.2-5.5-7.3-8c-3.8-4.3-6.3-6.6-9.3-8.5c-0.7-0.4-1.4-1-1.9-1.6
					C544.6,215.6,544,215.5,543.5,216.1 M552,224.6c0.7,0.7,2.2,2.4,3.4,3.8c1.1,1.3,3.8,4.2,5.8,6.4c3,3,5.7,6.3,8.1,9.8
					c1,1.5,3.4,4.4,5.2,6.4c2.1,2.4,4,4.9,5.7,7.5c3.1,4.8,6.5,9.4,10.1,13.9c0.6,0.7,1.2,1.4,1.8,2.1c0.5,0.8,0.5,0.9,0.1,1.3
					c-1.3,1.3-8.3,1.8-10.6,0.7c-1.6-0.7-3.6-3-4.7-5.3c-0.5-1-1.5-3.7-2.3-5.9c-1.7-4.9-3.4-8.5-7.4-15.8
					c-3.6-6.7-5.4-9.4-11.8-17.7c-5.1-6.7-7.5-10.1-7.5-10.6C547.8,220.7,550.4,222.9,552,224.6"/>
				<path id="Trazado_96" class="st5" d="M466.4,244.3c-1.7,0.9-3.4,1.8-5.1,2.6c-3.7,1.6-14.3,7-16.9,8.5
					c-4.2,2.6-8.1,5.6-11.8,8.8c-9.9,8.1-10.6,8.9-10.6,9.8c0.2,1.3,1,1.1,3.2-0.7c6.1-5.3,14.9-12.4,17.8-14.3
					c5.8-3.6,11.9-6.8,18.1-9.6c5-2.2,8.4-4.2,8.7-4.9C470.3,242.8,468.9,242.8,466.4,244.3"/>
			</g>
		</g>
	</g>
</g>
</svg>
